<svg width="50" height="43" viewBox="0 0 50 43" fill="none" xmlns="http://www.w3.org/2000/svg">
<path d="M46.7802 21.8536L41.099 21.5505C41.099 21.5505 37.5892 20.6484 35.1056 20.6484C33.8638 20.6484 32.8376 20.9515 32.8376 21.6516C32.8376 22.0557 33.2466 22.9579 33.8712 23.6579L36.0425 25.9602L36.1466 27.8656C36.972 29.0708 38.5187 31.7773 39.0393 33.2785C39.2475 34.0796 39.3516 34.7796 39.3516 35.4869C39.3516 39.0955 36.3548 40.5967 33.5663 40.5967C31.2909 40.5967 29.127 39.5935 28.7106 37.7892C27.9893 36.0859 26.9557 29.7709 25.818 29.7709C25.6098 29.7709 25.5056 29.8719 25.3049 30.2689L23.6541 33.6754L22.7246 38.2872C22.7246 38.2872 18.9024 43 16.0098 43C13.4295 43 11.1541 40.4956 11.1541 37.9913C11.1541 33.2784 17.7647 30.673 17.7647 26.5592C17.7647 26.2561 17.5565 24.856 16.5229 24.856C16.3147 24.856 16.1139 24.957 15.9057 25.0581L7.43605 28.8687C6.50654 29.2729 5.57704 29.475 4.75164 29.475C2.17133 29.475 0 27.6707 0 23.6579C0 21.7526 1.85901 20.4463 3.82213 19.3493C7.02707 17.545 10.1205 16.5418 13.5336 16.5418C14.5672 16.5418 16.3221 16.8449 17.4598 16.8449C18.077 16.8449 18.4935 16.7439 18.4935 16.448C18.4935 16.3469 18.4935 16.2459 18.3894 16.0438L17.5639 14.6437L16.0172 10.335L15.0877 9.12974L14.1582 7.2244C13.8459 6.52434 13.7493 5.81705 13.7493 5.11699C13.7493 2.70644 15.5042 0.606242 19.014 0.606242C23.7656 0.606242 24.182 11.2299 26.6582 11.2299C28.2049 11.2299 33.0607 0 36.7787 0C39.2549 0 41.8427 2.50436 41.8427 4.51074C41.8427 5.91809 40.6008 8.5235 40.6008 8.5235L36.6746 11.6341C36.3623 11.9372 36.1615 12.2331 36.1615 12.4352C36.1615 12.7383 36.4738 13.0342 36.8828 13.0342C37.091 13.0342 37.2992 12.9332 37.6041 12.8322L39.0467 12.1321L40.9057 11.432C41.7311 11.0351 43.077 10.6309 44.1106 10.6309C47.7246 10.6309 50 13.9364 50 17.148C50 20.1576 46.7951 21.8609 46.7951 21.8609L46.7802 21.8536Z" fill="#FFF3E2"/>
</svg>
