<svg width="61" height="84" viewBox="0 0 61 84" fill="none" xmlns="http://www.w3.org/2000/svg">
<g filter="url(#filter0_f_224_131)">
<path d="M51.6136 64.7727C51.6136 70.421 42.0742 75 30.3068 75C18.5394 75 9 70.421 9 64.7727C9 59.1243 18.5394 54.5454 30.3068 54.5454C42.0742 54.5454 51.6136 59.1243 51.6136 64.7727Z" fill="black" fill-opacity="0.1"/>
</g>
<g clip-path="url(#clip0_224_131)">
<path d="M48.9907 29.6155C48.1529 31.2168 48.4534 31.3743 47.5973 32.9621C47.0266 34.0206 46.4574 35.0807 45.8897 36.1423C45.0336 37.7346 45.325 37.8875 44.4689 39.4754C43.6128 41.0632 43.5217 41.0182 42.6611 42.6105C41.805 44.2029 40.9899 43.7755 40.1338 45.3679C39.2777 46.9557 40.1019 47.392 39.2458 48.9799C38.3897 50.5722 37.8433 50.2843 36.9872 51.8766C36.1311 53.469 36.5136 53.6714 35.6575 55.2592C34.8014 56.8515 34.5691 56.7301 33.713 58.3224C32.8524 59.9147 33.1894 60.0902 32.3287 61.687C31.4681 63.2793 32.0464 64.7727 30.2203 64.7772C28.3943 64.7772 29.6056 62.951 28.7495 61.3586C27.8934 59.7708 27.6794 59.8833 26.8233 58.2909C25.9672 56.6986 26.3725 56.4872 25.5164 54.8949C24.6603 53.3025 24.1047 53.5949 23.2441 52.0071C22.388 50.4147 22.734 50.2348 21.8779 48.6425C21.0218 47.0502 20.3024 47.4325 19.4463 45.8447C18.5902 44.2523 18.5082 44.2973 17.6475 42.705C16.7869 41.1127 16.9463 41.0317 16.0902 39.4394C15.2341 37.847 15.5893 37.6581 14.7332 36.0658C13.8725 34.4735 13.449 34.6939 12.5884 33.1015C11.7277 31.5092 11.7049 31.5092 10.8671 29.9079C10.3115 28.7429 10.307 27.326 9.9882 26.143C9.65122 24.906 9.10022 23.6825 9.0046 22.45C8.90897 21.2175 9.66033 19.9311 9.8015 18.6941C9.94266 17.4571 9.94266 16.1887 10.307 14.9967C10.6758 13.7912 11.1266 12.6262 11.7095 11.5106C12.2924 10.3951 13.1485 9.47299 13.9226 8.4789C14.6967 7.48482 15.4435 6.50873 16.3907 5.66309C17.3288 4.82644 18.1348 3.77838 19.2231 3.11716C20.2978 2.46494 21.4863 1.92517 22.6885 1.47086C23.8588 1.03004 25.061 0.386813 26.336 0.161908C27.5564 -0.0540013 28.9089 0.508262 30.2158 0.508262V0.00897217C31.5227 0.00897217 32.7841 0.44079 34.0045 0.661197C35.2795 0.890601 36.6092 0.94008 37.7795 1.38089C38.9498 1.82171 39.9562 2.76181 41.0263 3.40954C42.0964 4.05727 43.0481 4.88492 43.9862 5.72157C44.9243 6.55821 46.4589 6.93605 47.2285 7.93014C47.998 8.92422 48.4352 10.2422 49.0135 11.3622C49.5918 12.4777 50.0017 13.7192 50.3705 14.9247C50.7394 16.1212 51.2904 17.3537 51.427 18.6131C51.5636 19.8726 51.6592 21.1995 51.559 22.468C51.4589 23.7365 50.6847 24.8925 50.3477 26.1295C50.0244 27.317 49.5372 28.4595 48.9771 29.6245L48.9907 29.6155Z" fill="#715623"/>
<path d="M43.5945 26.008L40.1155 25.8191C40.1155 25.8191 37.9662 25.2568 36.4452 25.2568C35.6847 25.2568 35.0563 25.4458 35.0563 25.8821C35.0563 26.134 35.3068 26.6962 35.6893 27.1325L37.019 28.5674L37.0827 29.7549C37.5882 30.5061 38.5354 32.1929 38.8541 33.1285C38.9816 33.6278 39.0454 34.0641 39.0454 34.5049C39.0454 36.754 37.2102 37.6896 35.5026 37.6896C34.1092 37.6896 32.784 37.0644 32.529 35.9398C32.0873 34.8783 31.4543 30.9424 30.7576 30.9424C30.6301 30.9424 30.5664 31.0054 30.4434 31.2528L29.4325 33.3759L28.8633 36.2502C28.8633 36.2502 26.5227 39.1875 24.7513 39.1875C23.1711 39.1875 21.7777 37.6266 21.7777 36.0658C21.7777 33.1285 25.826 31.5047 25.826 28.9408C25.826 28.7519 25.6985 27.8792 25.0655 27.8792C24.938 27.8792 24.815 27.9422 24.6875 28.0052L19.5009 30.3802C18.9316 30.6321 18.3624 30.758 17.857 30.758C16.2768 30.758 14.9471 29.6335 14.9471 27.1325C14.9471 25.945 16.0856 25.1309 17.2878 24.4472C19.2504 23.3227 21.1447 22.6974 23.2349 22.6974C23.8679 22.6974 24.9425 22.8863 25.6393 22.8863C26.0172 22.8863 26.2722 22.8234 26.2722 22.6389C26.2722 22.576 26.2722 22.513 26.2085 22.387L25.703 21.5144L24.7558 18.829L24.1866 18.0779L23.6174 16.8904C23.4262 16.454 23.367 16.0132 23.367 15.5769C23.367 14.0745 24.4416 12.7656 26.591 12.7656C29.5008 12.7656 29.7558 19.3868 31.2722 19.3868C32.2194 19.3868 35.1929 12.3878 37.4698 12.3878C38.9862 12.3878 40.5709 13.9486 40.5709 15.1991C40.5709 16.0762 39.8104 17.7 39.8104 17.7L37.406 19.6387C37.2148 19.8276 37.0918 20.012 37.0918 20.138C37.0918 20.3269 37.2831 20.5113 37.5336 20.5113C37.6611 20.5113 37.7886 20.4484 37.9753 20.3854L38.8587 19.9491L39.9971 19.5128C40.5026 19.2654 41.3268 19.0135 41.9598 19.0135C44.1729 19.0135 45.5663 21.0736 45.5663 23.0753C45.5663 24.951 43.6036 26.0125 43.6036 26.0125L43.5945 26.008Z" fill="#EBBDD9"/>
</g>
<defs>
<filter id="filter0_f_224_131" x="0.3" y="45.8454" width="60.0136" height="37.8546" filterUnits="userSpaceOnUse" color-interpolation-filters="sRGB">
<feFlood flood-opacity="0" result="BackgroundImageFix"/>
<feBlend mode="normal" in="SourceGraphic" in2="BackgroundImageFix" result="shape"/>
<feGaussianBlur stdDeviation="4.35" result="effect1_foregroundBlur_224_131"/>
</filter>
<clipPath id="clip0_224_131">
<rect width="42.6136" height="64.7727" fill="white" transform="translate(9)"/>
</clipPath>
</defs>
</svg>
