<svg width="70" height="98" viewBox="0 0 70 98" fill="none" xmlns="http://www.w3.org/2000/svg">
<g filter="url(#filter0_f_190_183)">
<path d="M60 76C60 82.6274 48.8071 88 35 88C21.1929 88 10 82.6274 10 76C10 69.3726 21.1929 64 35 64C48.8071 64 60 69.3726 60 76Z" fill="#D8D4BF" fill-opacity="0.5"/>
</g>
<g clip-path="url(#clip0_190_183)">
<path d="M56.9224 34.7488C55.9393 36.6277 56.2919 36.8124 55.2874 38.6755C54.6178 39.9175 53.9499 41.1613 53.2838 42.4069C52.2793 44.2752 52.6213 44.4547 51.6168 46.3177C50.6123 48.1808 50.5054 48.128 49.4956 49.9963C48.4911 51.8647 47.5347 51.3633 46.5302 53.2316C45.5257 55.0947 46.4928 55.6066 45.4883 57.4697C44.4838 59.338 43.8427 59.0002 42.8382 60.8686C41.8337 62.7369 42.2825 62.9744 41.278 64.8374C40.2735 66.7058 40.001 66.5633 38.9966 68.4316C37.9867 70.2999 38.3821 70.5058 37.3723 72.3794C36.3624 74.2477 37.041 75.9999 34.8985 76.0052C32.7559 76.0052 34.1771 73.8624 33.1727 71.9941C32.1682 70.131 31.917 70.263 30.9126 68.3947C29.9081 66.5263 30.3836 66.2783 29.3791 64.4099C28.3746 62.5416 27.7228 62.8847 26.7129 61.0216C25.7085 59.1533 26.1145 58.9422 25.11 57.0738C24.1056 55.2055 23.2614 55.6541 22.2569 53.791C21.2524 51.9227 21.1562 51.9755 20.1464 50.1072C19.1365 48.2388 19.3235 48.1438 18.3191 46.2755C17.3146 44.4072 17.7313 44.1855 16.7268 42.3172C15.717 40.4488 15.2201 40.7074 14.2103 38.8391C13.2004 36.9708 13.1737 36.9708 12.1906 35.0919C11.5388 33.7249 11.5334 32.0624 11.1594 30.6744C10.764 29.223 10.1175 27.7874 10.0053 26.3413C9.89311 24.8952 10.7747 23.3858 10.9403 21.9344C11.106 20.483 11.106 18.9947 11.5334 17.5961C11.9662 16.1816 12.4952 14.8147 13.1791 13.5058C13.863 12.1969 14.8675 11.1149 15.7758 9.94855C16.6841 8.78216 17.5603 7.63689 18.6717 6.64466C19.7724 5.663 20.7181 4.43328 21.9951 3.65744C23.256 2.89216 24.6505 2.25883 26.0611 1.72578C27.4343 1.20855 28.8448 0.453831 30.3409 0.189942C31.7728 -0.0633908 33.3597 0.596331 34.8931 0.596331V0.010498C36.4266 0.010498 37.9066 0.517165 39.3385 0.775776C40.8346 1.04494 42.3947 1.103 43.7679 1.62022C45.141 2.13744 46.3218 3.2405 47.5774 4.0005C48.8331 4.7605 49.9498 5.73161 51.0504 6.71328C52.1511 7.69494 53.9517 8.13827 54.8546 9.30466C55.7576 10.4711 56.2705 12.0174 56.9491 13.3316C57.6277 14.6405 58.1085 16.0972 58.5413 17.5116C58.9741 18.9155 59.6206 20.3616 59.7809 21.8394C59.9412 23.3172 60.0534 24.8741 59.9359 26.3624C59.8183 27.8508 58.91 29.2072 58.5146 30.6586C58.1353 32.0519 57.5636 33.3924 56.9064 34.7594L56.9224 34.7488Z" fill="#D25E29"/>
<path d="M50.5909 30.516L46.5088 30.2944C46.5088 30.2944 43.9869 29.6346 42.2024 29.6346C41.3101 29.6346 40.5728 29.8563 40.5728 30.3682C40.5728 30.6638 40.8666 31.3235 41.3154 31.8355L42.8756 33.5191L42.9504 34.9124C43.5435 35.7938 44.6548 37.773 45.0288 38.8707C45.1784 39.4566 45.2532 39.9685 45.2532 40.4857C45.2532 43.1246 43.1 44.2224 41.0964 44.2224C39.4614 44.2224 37.9066 43.4888 37.6074 42.1694C37.0891 40.9238 36.3464 36.3057 35.5289 36.3057C35.3793 36.3057 35.3045 36.3796 35.1603 36.6699L33.9741 39.161L33.3062 42.5335C33.3062 42.5335 30.5599 45.9799 28.4815 45.9799C26.6275 45.9799 24.9925 44.1485 24.9925 42.3171C24.9925 38.8707 29.7424 36.9655 29.7424 33.9571C29.7424 33.7355 29.5928 32.7116 28.8502 32.7116C28.7006 32.7116 28.5563 32.7855 28.4067 32.8594L22.321 35.646C21.6531 35.9416 20.9852 36.0894 20.3922 36.0894C18.5381 36.0894 16.978 34.7699 16.978 31.8355C16.978 30.4421 18.3137 29.4869 19.7243 28.6846C22.0271 27.3652 24.2498 26.6316 26.7023 26.6316C27.4449 26.6316 28.7059 26.8532 29.5234 26.8532C29.9669 26.8532 30.2661 26.7794 30.2661 26.563C30.2661 26.4891 30.2661 26.4152 30.1913 26.2674L29.5982 25.2435L28.4868 22.0927L27.819 21.2113L27.1511 19.818C26.9267 19.306 26.8572 18.7888 26.8572 18.2769C26.8572 16.5141 28.1182 14.9782 30.6401 14.9782C34.0543 14.9782 34.3535 22.7471 36.1327 22.7471C37.244 22.7471 40.733 14.5349 43.4046 14.5349C45.1838 14.5349 47.0431 16.3663 47.0431 17.8335C47.0431 18.8627 46.1509 20.768 46.1509 20.768L43.3297 23.0427C43.1053 23.2644 42.9611 23.4807 42.9611 23.6285C42.9611 23.8502 43.1855 24.0666 43.4794 24.0666C43.629 24.0666 43.7786 23.9927 43.9976 23.9188L45.0342 23.4069L46.3699 22.8949C46.963 22.6046 47.9301 22.3091 48.6728 22.3091C51.2695 22.3091 52.9044 24.7263 52.9044 27.0749C52.9044 29.2757 50.6016 30.5213 50.6016 30.5213L50.5909 30.516Z" fill="black"/>
</g>
<defs>
<filter id="filter0_f_190_183" x="0" y="54" width="70" height="44" filterUnits="userSpaceOnUse" color-interpolation-filters="sRGB">
<feFlood flood-opacity="0" result="BackgroundImageFix"/>
<feBlend mode="normal" in="SourceGraphic" in2="BackgroundImageFix" result="shape"/>
<feGaussianBlur stdDeviation="5" result="effect1_foregroundBlur_190_183"/>
</filter>
<clipPath id="clip0_190_183">
<rect width="50" height="76" fill="white" transform="translate(10)"/>
</clipPath>
</defs>
</svg>
