<svg width="43" height="65" viewBox="0 0 43 65" fill="none" xmlns="http://www.w3.org/2000/svg">
<g clip-path="url(#clip0_248_268)">
<path d="M39.9907 29.6154C39.1529 31.2168 39.4534 31.3742 38.5973 32.962C38.0266 34.0206 37.4574 35.0806 36.8897 36.1422C36.0336 37.7345 36.325 37.8875 35.4689 39.4753C34.6128 41.0631 34.5217 41.0181 33.6611 42.6105C32.805 44.2028 31.9899 43.7755 31.1338 45.3678C30.2777 46.9556 31.1019 47.392 30.2458 48.9798C29.3897 50.5721 28.8433 50.2842 27.9872 51.8766C27.1311 53.4689 27.5136 53.6713 26.6575 55.2591C25.8014 56.8515 25.5691 56.73 24.713 58.3224C23.8524 59.9147 24.1894 60.0901 23.3287 61.6869C22.4681 63.2793 23.0464 64.7726 21.2203 64.7771C19.3943 64.7771 20.6056 62.9509 19.7495 61.3586C18.8934 59.7707 18.6794 59.8832 17.8233 58.2909C16.9672 56.6985 17.3725 56.4871 16.5164 54.8948C15.6603 53.3025 15.1047 53.5948 14.2441 52.007C13.388 50.4147 13.734 50.2348 12.8779 48.6424C12.0218 47.0501 11.3024 47.4324 10.4463 45.8446C9.59016 44.2523 9.50819 44.2973 8.64754 42.7049C7.78689 41.1126 7.94627 41.0316 7.09017 39.4393C6.23407 37.847 6.58926 37.6581 5.73317 36.0657C4.87251 34.4734 4.44902 34.6938 3.58837 33.1015C2.72772 31.5091 2.70495 31.5091 1.86706 29.9078C1.31151 28.7428 1.30696 27.3259 0.988198 26.1429C0.651224 24.9059 0.100225 23.6824 0.00459668 22.45C-0.0910313 21.2175 0.660331 19.931 0.801496 18.694C0.942661 17.4571 0.942661 16.1886 1.30696 14.9966C1.67581 13.7911 2.12663 12.6261 2.7095 11.5106C3.29238 10.395 4.14847 9.47293 4.92261 8.47884C5.69674 7.48476 6.44354 6.50867 7.39072 5.66303C8.32878 4.82638 9.13479 3.77832 10.2231 3.1171C11.2978 2.46488 12.4863 1.9251 13.6885 1.4708C14.8588 1.02998 16.061 0.386752 17.336 0.161847C18.5564 -0.0540623 19.9089 0.508201 21.2158 0.508201V0.00891113C22.5227 0.00891113 23.7841 0.440729 25.0045 0.661136C26.2795 0.89054 27.6092 0.940019 28.7795 1.38083C29.9498 1.82165 30.9562 2.76175 32.0263 3.40948C33.0964 4.05721 34.0481 4.88486 34.9862 5.72151C35.9243 6.55815 37.4589 6.93599 38.2285 7.93007C38.998 8.92416 39.4352 10.2421 40.0135 11.3621C40.5918 12.4777 41.0017 13.7191 41.3705 14.9246C41.7394 16.1211 42.2904 17.3536 42.427 18.6131C42.5636 19.8725 42.6592 21.1995 42.559 22.468C42.4589 23.7364 41.6847 24.8924 41.3477 26.1294C41.0244 27.3169 40.5372 28.4594 39.9771 29.6244L39.9907 29.6154Z" fill="#191718"/>
<path d="M34.5945 26.0081L31.1155 25.8192C31.1155 25.8192 28.9662 25.2569 27.4452 25.2569C26.6847 25.2569 26.0563 25.4458 26.0563 25.8821C26.0563 26.134 26.3068 26.6963 26.6893 27.1326L28.019 28.5675L28.0827 29.755C28.5882 30.5062 29.5354 32.193 29.8541 33.1286C29.9816 33.6279 30.0454 34.0642 30.0454 34.505C30.0454 36.7541 28.2102 37.6897 26.5026 37.6897C25.1092 37.6897 23.784 37.0644 23.529 35.9399C23.0873 34.8784 22.4543 30.9425 21.7576 30.9425C21.6301 30.9425 21.5664 31.0055 21.4434 31.2529L20.4325 33.376L19.8633 36.2503C19.8633 36.2503 17.5227 39.1875 15.7513 39.1875C14.1711 39.1875 12.7777 37.6267 12.7777 36.0658C12.7777 33.1286 16.826 31.5048 16.826 28.9408C16.826 28.7519 16.6985 27.8793 16.0655 27.8793C15.938 27.8793 15.815 27.9423 15.6875 28.0052L10.5009 30.3802C9.93164 30.6321 9.36243 30.7581 8.85697 30.7581C7.27683 30.7581 5.94714 29.6336 5.94714 27.1326C5.94714 25.9451 7.08557 25.131 8.28775 24.4472C10.2504 23.3227 12.1447 22.6975 14.2349 22.6975C14.8679 22.6975 15.9425 22.8864 16.6393 22.8864C17.0172 22.8864 17.2722 22.8234 17.2722 22.639C17.2722 22.576 17.2722 22.5131 17.2085 22.3871L16.703 21.5145L15.7558 18.8291L15.1866 18.0779L14.6174 16.8904C14.4262 16.4541 14.367 16.0133 14.367 15.577C14.367 14.0746 15.4416 12.7657 17.591 12.7657C20.5008 12.7657 20.7558 19.3869 22.2722 19.3869C23.2194 19.3869 26.1929 12.3878 28.4698 12.3878C29.9862 12.3878 31.5709 13.9487 31.5709 15.1991C31.5709 16.0763 30.8104 17.7001 30.8104 17.7001L28.406 19.6388C28.2148 19.8277 28.0918 20.0121 28.0918 20.1381C28.0918 20.327 28.2831 20.5114 28.5336 20.5114C28.6611 20.5114 28.7886 20.4484 28.9753 20.3855L29.8587 19.9491L30.9971 19.5128C31.5026 19.2654 32.3268 19.0135 32.9598 19.0135C35.1729 19.0135 36.5663 21.0737 36.5663 23.0753C36.5663 24.951 34.6036 26.0126 34.6036 26.0126L34.5945 26.0081Z" fill="#FEFBEE"/>
</g>
<defs>
<clipPath id="clip0_248_268">
<rect width="42.6136" height="64.7727" fill="white"/>
</clipPath>
</defs>
</svg>
