<svg width="61" height="84" viewBox="0 0 61 84" fill="none" xmlns="http://www.w3.org/2000/svg">
<g filter="url(#filter0_f_224_132)">
<path d="M51.6136 64.7727C51.6136 70.421 42.0742 75 30.3068 75C18.5394 75 9 70.421 9 64.7727C9 59.1243 18.5394 54.5454 30.3068 54.5454C42.0742 54.5454 51.6136 59.1243 51.6136 64.7727Z" fill="black" fill-opacity="0.1"/>
</g>
<g clip-path="url(#clip0_224_132)">
<path d="M48.9906 29.6155C48.1527 31.2168 48.4533 31.3743 47.5972 32.9621C47.0265 34.0206 46.4572 35.0807 45.8895 36.1423C45.0334 37.7346 45.3249 37.8875 44.4688 39.4754C43.6127 41.0632 43.5216 41.0182 42.661 42.6105C41.8049 44.2029 40.9897 43.7755 40.1336 45.3679C39.2776 46.9557 40.1018 47.392 39.2457 48.9799C38.3896 50.5722 37.8431 50.2843 36.987 51.8766C36.1309 53.469 36.5134 53.6714 35.6573 55.2592C34.8013 56.8515 34.569 56.7301 33.7129 58.3224C32.8523 59.9147 33.1892 60.0902 32.3286 61.687C31.4679 63.2793 32.0463 64.7727 30.2202 64.7772C28.3942 64.7772 29.6055 62.951 28.7494 61.3586C27.8933 59.7708 27.6792 59.8833 26.8231 58.2909C25.9671 56.6986 26.3723 56.4872 25.5162 54.8949C24.6601 53.3025 24.1046 53.5949 23.2439 52.0071C22.3878 50.4147 22.7339 50.2348 21.8778 48.6425C21.0217 47.0502 20.3022 47.4325 19.4461 45.8447C18.59 44.2523 18.5081 44.2973 17.6474 42.705C16.7868 41.1127 16.9461 41.0317 16.0901 39.4394C15.234 37.847 15.5891 37.6581 14.733 36.0658C13.8724 34.4735 13.4489 34.6939 12.5882 33.1015C11.7276 31.5092 11.7048 31.5092 10.8669 29.9079C10.3114 28.7429 10.3068 27.326 9.98808 26.143C9.6511 24.906 9.1001 23.6825 9.00447 22.45C8.90885 21.2175 9.66021 19.9311 9.80137 18.6941C9.94254 17.4571 9.94254 16.1887 10.3068 14.9967C10.6757 13.7912 11.1265 12.6262 11.7094 11.5106C12.2923 10.3951 13.1484 9.47299 13.9225 8.4789C14.6966 7.48482 15.4434 6.50873 16.3906 5.66309C17.3287 4.82644 18.1347 3.77838 19.223 3.11716C20.2977 2.46494 21.4862 1.92517 22.6884 1.47086C23.8587 1.03004 25.0609 0.386813 26.3359 0.161908C27.5563 -0.0540013 28.9087 0.508262 30.2157 0.508262V0.00897217C31.5226 0.00897217 32.784 0.44079 34.0044 0.661197C35.2794 0.890601 36.6091 0.94008 37.7794 1.38089C38.9497 1.82171 39.9561 2.76181 41.0262 3.40954C42.0963 4.05727 43.048 4.88492 43.9861 5.72157C44.9242 6.55821 46.4588 6.93605 47.2283 7.93014C47.9979 8.92422 48.4351 10.2422 49.0134 11.3622C49.5917 12.4777 50.0015 13.7192 50.3704 14.9247C50.7392 16.1212 51.2902 17.3537 51.4269 18.6131C51.5635 19.8726 51.6591 21.1995 51.5589 22.468C51.4587 23.7365 50.6846 24.8925 50.3476 26.1295C50.0243 27.317 49.5371 28.4595 48.977 29.6245L48.9906 29.6155Z" fill="#EBBDD9"/>
<path d="M43.5944 26.008L40.1154 25.8191C40.1154 25.8191 37.966 25.2568 36.4451 25.2568C35.6846 25.2568 35.0562 25.4458 35.0562 25.8821C35.0562 26.134 35.3067 26.6962 35.6892 27.1325L37.0189 28.5674L37.0826 29.7549C37.5881 30.5061 38.5352 32.1929 38.854 33.1285C38.9815 33.6278 39.0453 34.0641 39.0453 34.5049C39.0453 36.754 37.2101 37.6896 35.5025 37.6896C34.109 37.6896 32.7839 37.0644 32.5289 35.9398C32.0872 34.8783 31.4542 30.9424 30.7575 30.9424C30.63 30.9424 30.5663 31.0054 30.4433 31.2528L29.4324 33.3759L28.8632 36.2502C28.8632 36.2502 26.5226 39.1875 24.7512 39.1875C23.171 39.1875 21.7776 37.6266 21.7776 36.0658C21.7776 33.1285 25.8258 31.5047 25.8258 28.9408C25.8258 28.7519 25.6983 27.8792 25.0654 27.8792C24.9379 27.8792 24.8149 27.9422 24.6874 28.0052L19.5007 30.3802C18.9315 30.6321 18.3623 30.758 17.8568 30.758C16.2767 30.758 14.947 29.6335 14.947 27.1325C14.947 25.945 16.0854 25.1309 17.2876 24.4472C19.2503 23.3227 21.1446 22.6974 23.2348 22.6974C23.8677 22.6974 24.9424 22.8863 25.6391 22.8863C26.0171 22.8863 26.2721 22.8234 26.2721 22.6389C26.2721 22.576 26.2721 22.513 26.2083 22.387L25.7029 21.5144L24.7557 18.829L24.1865 18.0779L23.6173 16.8904C23.426 16.454 23.3668 16.0132 23.3668 15.5769C23.3668 14.0745 24.4415 12.7656 26.5909 12.7656C29.5007 12.7656 29.7557 19.3868 31.2721 19.3868C32.2192 19.3868 35.1928 12.3878 37.4697 12.3878C38.9861 12.3878 40.5708 13.9486 40.5708 15.1991C40.5708 16.0762 39.8103 17.7 39.8103 17.7L37.4059 19.6387C37.2147 19.8276 37.0917 20.012 37.0917 20.138C37.0917 20.3269 37.283 20.5113 37.5334 20.5113C37.6609 20.5113 37.7884 20.4484 37.9751 20.3854L38.8586 19.9491L39.997 19.5128C40.5024 19.2654 41.3267 19.0135 41.9596 19.0135C44.1727 19.0135 45.5662 21.0736 45.5662 23.0753C45.5662 24.951 43.6035 26.0125 43.6035 26.0125L43.5944 26.008Z" fill="#D25E29"/>
</g>
<defs>
<filter id="filter0_f_224_132" x="0.3" y="45.8454" width="60.0136" height="37.8546" filterUnits="userSpaceOnUse" color-interpolation-filters="sRGB">
<feFlood flood-opacity="0" result="BackgroundImageFix"/>
<feBlend mode="normal" in="SourceGraphic" in2="BackgroundImageFix" result="shape"/>
<feGaussianBlur stdDeviation="4.35" result="effect1_foregroundBlur_224_132"/>
</filter>
<clipPath id="clip0_224_132">
<rect width="42.6136" height="64.7727" fill="white" transform="translate(8.99988)"/>
</clipPath>
</defs>
</svg>
