<svg width="61" height="84" viewBox="0 0 61 84" fill="none" xmlns="http://www.w3.org/2000/svg">
<g filter="url(#filter0_f_224_133)">
<path d="M51.6136 64.7727C51.6136 70.421 42.0742 75 30.3068 75C18.5394 75 9 70.421 9 64.7727C9 59.1243 18.5394 54.5454 30.3068 54.5454C42.0742 54.5454 51.6136 59.1243 51.6136 64.7727Z" fill="black" fill-opacity="0.1"/>
</g>
<g clip-path="url(#clip0_224_133)">
<path d="M48.9909 29.6155C48.153 31.2168 48.4535 31.3743 47.5974 32.9621C47.0267 34.0206 46.4575 35.0807 45.8898 36.1423C45.0337 37.7346 45.3251 37.8875 44.469 39.4754C43.6129 41.0632 43.5219 41.0182 42.6612 42.6105C41.8051 44.2029 40.99 43.7755 40.1339 45.3679C39.2778 46.9557 40.102 47.392 39.2459 48.9799C38.3898 50.5722 37.8434 50.2843 36.9873 51.8766C36.1312 53.469 36.5137 53.6714 35.6576 55.2592C34.8015 56.8515 34.5693 56.7301 33.7132 58.3224C32.8525 59.9147 33.1895 60.0902 32.3288 61.687C31.4682 63.2793 32.0465 64.7727 30.2205 64.7772C28.3944 64.7772 29.6057 62.951 28.7496 61.3586C27.8935 59.7708 27.6795 59.8833 26.8234 58.2909C25.9673 56.6986 26.3726 56.4872 25.5165 54.8949C24.6604 53.3025 24.1048 53.5949 23.2442 52.0071C22.3881 50.4147 22.7342 50.2348 21.8781 48.6425C21.022 47.0502 20.3025 47.4325 19.4464 45.8447C18.5903 44.2523 18.5083 44.2973 17.6477 42.705C16.787 41.1127 16.9464 41.0317 16.0903 39.4394C15.2342 37.847 15.5894 37.6581 14.7333 36.0658C13.8726 34.4735 13.4491 34.6939 12.5885 33.1015C11.7278 31.5092 11.7051 31.5092 10.8672 29.9079C10.3116 28.7429 10.3071 27.326 9.98832 26.143C9.65135 24.906 9.10035 23.6825 9.00472 22.45C8.90909 21.2175 9.66045 19.9311 9.80162 18.6941C9.94278 17.4571 9.94278 16.1887 10.3071 14.9967C10.6759 13.7912 11.1267 12.6262 11.7096 11.5106C12.2925 10.3951 13.1486 9.47299 13.9227 8.4789C14.6969 7.48482 15.4437 6.50873 16.3908 5.66309C17.3289 4.82644 18.1349 3.77838 19.2232 3.11716C20.2979 2.46494 21.4864 1.92517 22.6886 1.47086C23.8589 1.03004 25.0611 0.386813 26.3361 0.161908C27.5565 -0.0540013 28.909 0.508262 30.2159 0.508262V0.00897217C31.5228 0.00897217 32.7842 0.44079 34.0046 0.661197C35.2796 0.890601 36.6093 0.94008 37.7796 1.38089C38.9499 1.82171 39.9563 2.76181 41.0264 3.40954C42.0965 4.05727 43.0483 4.88492 43.9863 5.72157C44.9244 6.55821 46.459 6.93605 47.2286 7.93014C47.9982 8.92422 48.4353 10.2422 49.0136 11.3622C49.592 12.4777 50.0018 13.7192 50.3706 14.9247C50.7395 16.1212 51.2905 17.3537 51.4271 18.6131C51.5637 19.8726 51.6593 21.1995 51.5592 22.468C51.459 23.7365 50.6848 24.8925 50.3479 26.1295C50.0246 27.317 49.5373 28.4595 48.9772 29.6245L48.9909 29.6155Z" fill="#F4C02F"/>
<path d="M43.5947 26.008L40.1156 25.8191C40.1156 25.8191 37.9663 25.2568 36.4453 25.2568C35.6849 25.2568 35.0565 25.4458 35.0565 25.8821C35.0565 26.134 35.3069 26.6962 35.6894 27.1325L37.0191 28.5674L37.0829 29.7549C37.5883 30.5061 38.5355 32.1929 38.8542 33.1285C38.9818 33.6278 39.0455 34.0641 39.0455 34.5049C39.0455 36.754 37.2104 37.6896 35.5027 37.6896C34.1093 37.6896 32.7842 37.0644 32.5291 35.9398C32.0874 34.8783 31.4545 30.9424 30.7578 30.9424C30.6302 30.9424 30.5665 31.0054 30.4435 31.2528L29.4326 33.3759L28.8634 36.2502C28.8634 36.2502 26.5228 39.1875 24.7514 39.1875C23.1713 39.1875 21.7778 37.6266 21.7778 36.0658C21.7778 33.1285 25.8261 31.5047 25.8261 28.9408C25.8261 28.7519 25.6986 27.8792 25.0656 27.8792C24.9381 27.8792 24.8152 27.9422 24.6877 28.0052L19.501 30.3802C18.9318 30.6321 18.3625 30.758 17.8571 30.758C16.2769 30.758 14.9473 29.6335 14.9473 27.1325C14.9473 25.945 16.0857 25.1309 17.2879 24.4472C19.2505 23.3227 21.1449 22.6974 23.235 22.6974C23.868 22.6974 24.9427 22.8863 25.6394 22.8863C26.0173 22.8863 26.2723 22.8234 26.2723 22.6389C26.2723 22.576 26.2723 22.513 26.2086 22.387L25.7031 21.5144L24.756 18.829L24.1867 18.0779L23.6175 16.8904C23.4263 16.454 23.3671 16.0132 23.3671 15.5769C23.3671 14.0745 24.4418 12.7656 26.5911 12.7656C29.5009 12.7656 29.7559 19.3868 31.2723 19.3868C32.2195 19.3868 35.1931 12.3878 37.4699 12.3878C38.9863 12.3878 40.571 13.9486 40.571 15.1991C40.571 16.0762 39.8105 17.7 39.8105 17.7L37.4062 19.6387C37.2149 19.8276 37.092 20.012 37.092 20.138C37.092 20.3269 37.2832 20.5113 37.5337 20.5113C37.6612 20.5113 37.7887 20.4484 37.9754 20.3854L38.8588 19.9491L39.9972 19.5128C40.5027 19.2654 41.3269 19.0135 41.9599 19.0135C44.173 19.0135 45.5664 21.0736 45.5664 23.0753C45.5664 24.951 43.6038 26.0125 43.6038 26.0125L43.5947 26.008Z" fill="#7A7978"/>
</g>
<defs>
<filter id="filter0_f_224_133" x="0.3" y="45.8454" width="60.0136" height="37.8546" filterUnits="userSpaceOnUse" color-interpolation-filters="sRGB">
<feFlood flood-opacity="0" result="BackgroundImageFix"/>
<feBlend mode="normal" in="SourceGraphic" in2="BackgroundImageFix" result="shape"/>
<feGaussianBlur stdDeviation="4.35" result="effect1_foregroundBlur_224_133"/>
</filter>
<clipPath id="clip0_224_133">
<rect width="42.6136" height="64.7727" fill="white" transform="translate(9.00012)"/>
</clipPath>
</defs>
</svg>
