<svg width="274" height="161" viewBox="0 0 274 161" fill="none" xmlns="http://www.w3.org/2000/svg">
<g clip-path="url(#clip0_54_1023)">
<path d="M24.565 25.4927L21.695 21.9896L20.1566 21.2883C20.1566 21.2883 14.697 21.7091 14.697 25.3489C14.697 26.471 15.2576 27.3091 16.3054 27.8701L20.3634 29.7602L21.3446 31.0891L22.953 31.8606L24.1445 35.013C24.1445 35.013 24.7753 37.955 24.7753 38.7965C24.7753 42.3697 23.4471 44.2598 23.4471 44.2598L22.8164 46.0095L19.0353 48.11C19.0353 48.11 17.0063 49.7896 13.7158 49.7896C10.7757 49.7896 6.50744 48.4606 2.93657 46.7775C1.8152 46.1463 0.416992 44.677 0.416992 43.064C0.416992 42.3627 1.95537 41.5948 1.95537 41.5948L3.56384 41.9454H5.17231L8.25257 43.6251L9.93112 43.6952C9.93112 43.6952 12.9413 44.8173 14.1293 44.8173C16.5788 44.8173 20.9871 41.735 20.9871 38.5826C20.9871 37.2537 19.9359 35.9212 17.977 34.2415C13.2181 30.1108 10.6285 30.2511 10.6285 26.8182C10.6285 22.6173 12.0267 20.3731 12.0267 20.3731L14.2659 18.2727L16.0846 17.8519C16.0846 17.8519 19.1649 17.0804 20.5631 17.0804C23.5032 17.0804 27.1407 20.1627 27.1407 21.8423C27.1407 25.4857 24.551 25.4857 24.551 25.4857L24.565 25.4927Z" fill="black"/>
<path d="M107.921 33.7576C104.07 33.7576 99.4516 32.355 96.515 32.355C93.5784 32.355 92.0365 33.7576 92.0365 35.297C92.0365 35.858 92.2468 36.4892 92.6673 37.0468C94.7664 40.2693 100.016 42.9308 100.016 42.9308L102.325 43.6321L104.144 43.7723L105.055 44.684L106.246 45.6659L106.387 47.9767L105.686 48.678L105.125 49.5897C105.125 49.5897 104.214 50.0105 103.797 50.0105C100.647 50.0105 96.2382 47.1386 96.2382 47.1386L93.7887 45.6694L93.228 44.4807L89.3102 39.6486C89.3102 39.6486 88.329 37.7586 88.329 36.4962C88.329 35.1673 88.8897 33.1334 88.8897 33.1334L89.0298 28.9326C89.0298 28.091 89.8709 24.6616 89.8709 24.6616C89.8709 24.6616 93.0913 20.9482 95.2605 19.4088C96.8689 18.3568 98.6912 17.7993 98.6912 17.7993L100.23 17.098L103.8 16.7473C109.12 16.7473 112.2 21.4391 112.2 28.9326C112.2 31.4538 110.381 33.7646 107.932 33.7646L107.921 33.7576ZM104.561 21.2918C104.07 21.0814 103.369 21.0113 102.812 21.0113C102.255 21.0113 101.761 21.0814 101.761 21.0814L100.082 22.2736L97.9833 22.4139C97.9833 22.4139 95.0432 24.3741 95.0432 25.7767C95.0432 26.5481 95.6039 27.4563 96.4414 28.0875C96.7217 28.2979 96.932 28.368 97.2123 28.368C97.8431 28.368 98.4704 27.9473 99.2413 27.9473C99.4516 27.9473 99.5917 27.9473 99.802 28.0174L101.761 28.6486L103.65 28.4382C107.497 27.8771 108.268 27.4563 108.268 25.2858C108.268 23.2555 106.52 21.9931 104.561 21.2953V21.2918Z" fill="black"/>
<path d="M181.617 14.426V15.9653L181.196 18.8372L180.986 28.4312L180.355 33.3333L180.075 39.7749L180.145 43.2779L179.584 45.0277L179.234 47.9697C178.953 49.9298 177.835 52.3809 176.153 52.3809C175.102 52.3809 174.335 49.8597 174.335 47.9697C174.335 46.0796 175.596 42.8571 175.736 41.1074L175.947 35.6441L175.806 33.6138L176.998 28.1506L177.208 18.9073L177.839 15.6147L177.979 12.6026C177.979 12.6026 178.68 10.6424 178.82 9.23977C178.89 8.60859 178.89 7.49 178.89 6.64843V5.10905L179.521 2.86836L179.731 1.32898C179.941 0.347149 180.853 0 181.76 0C182.668 0 182.811 1.8199 182.811 3.36279C182.811 4.48488 182.741 5.39308 182.741 5.39308L181.62 14.426H181.617Z" fill="black"/>
<path d="M265.951 45.8728C265.74 45.9429 265.53 46.013 265.25 46.013C264.619 46.013 264.062 45.8026 264.062 45.8026L261.262 43.7022L255.662 44.8944C253.493 45.3854 251.464 45.5256 249.782 45.5256C247.192 45.5256 246.004 43.2849 244.462 41.1845C243.064 39.4347 241.943 37.4044 241.943 36.2122C241.943 29.7672 246.561 24.2373 246.561 24.2373L248.24 21.7161L249.498 21.1551C249.498 21.1551 251.247 19.8962 252.999 19.8962C254.257 19.8962 256.079 20.878 257.267 20.878C257.617 20.878 257.898 20.8079 258.108 20.5975L259.436 19.1949C259.436 19.1949 260.067 18.9144 260.624 18.9144C261.886 18.9144 263.564 22.7681 263.915 25.7066L264.265 28.7187L265.733 35.3005V38.3828L266.785 40.904C266.785 40.904 266.785 45.5256 265.944 45.8763L265.951 45.8728ZM260.214 31.4468L258.746 29.0658L258.115 27.7369C258.115 27.7369 255.596 25.9871 253.006 25.9871C249.505 25.9871 245.517 29.7707 245.517 33.9715C245.517 35.2339 246.568 37.4746 246.568 37.4746L248.457 38.9438L249.645 39.9958C249.645 39.9958 251.394 40.9075 252.165 40.9075C257.274 40.9075 260.705 38.246 260.705 33.7646C260.705 32.7828 260.214 31.4538 260.214 31.4538V31.4468Z" fill="black"/>
<path d="M26.8043 133.547C26.8043 133.547 26.3137 134.529 25.1257 134.599L19.4558 135.02L17.2165 135.371L16.6559 136.212L18.7549 141.675L21.2745 146.016L21.9754 148.187L25.6829 154.141C26.4538 155.4 26.594 156.452 26.594 157.644C26.594 158.973 25.8931 161.007 24.3548 161.007C23.3736 161.007 22.9566 158.907 22.2557 157.504L21.2745 155.404L20.2933 153.934L19.7326 151.764L18.8916 150.571L16.2318 145.669L14.2729 143.148L13.7123 141.048C13.7123 141.048 12.314 138.386 10.4217 138.386C8.18249 138.386 6.01334 138.807 5.45266 141.468L4.96206 144.2L4.47146 146.16L4.61163 150.642L4.33128 155.404C4.2612 157.504 3.91077 158.346 2.51256 158.346C1.67153 158.346 1.60145 157.784 0.763924 156.315C0.203238 155.474 -0.00701904 154.285 -0.00701904 153.233C-0.00701904 152.742 0.0630666 152.321 0.133152 151.904L0.693838 149.102L0.553666 146.09L1.04427 140.837L0.834009 138.947L1.18444 131.033L1.60495 128.652L1.39469 112.473C1.39469 110.583 2.37589 109.32 3.98436 109.32C5.2459 109.32 5.87317 110.79 5.87317 111.351L6.08343 114.643L5.2424 118.217L5.38257 123.189L4.96206 130.963V131.384C4.96206 132.783 5.31248 133.484 6.43035 133.835H6.71069C7.34147 133.835 8.31916 133.484 8.31916 133.484L10.208 132.923L13.3583 132.713L16.5788 131.313C19.2385 130.121 22.1085 129.704 24.0674 129.704H25.9562C27.1477 129.704 28.1254 129.774 28.1254 130.335C28.1254 131.177 26.7973 133.558 26.7973 133.558L26.8043 133.547Z" fill="black"/>
<path d="M192.256 127.453C191.765 127.944 191.555 128.852 190.927 128.852H190.857L189.389 128.712L187.64 129.062L186.032 128.712L185.051 129.132L184.7 136.486L183.859 140.199L184.21 145.171L183.999 148.674L184.42 153.226L183.929 155.397L184.14 156.659L183.439 157.918L182.317 159.457L181.406 159.036H180.215C180.215 159.036 179.654 157.427 179.654 156.235C179.654 154.972 180.145 153.012 180.145 153.012L180.005 146.36L180.355 143.839L180.145 142.3L180.775 138.796L180.846 134.385L181.406 130.882L180.355 129.69L174.335 128.708C173.704 128.638 173.283 128.077 173.283 127.239C173.283 126.401 174.194 124.086 174.194 124.086C174.194 124.086 175.803 124.648 176.994 124.648H177.205C179.164 124.507 181.473 123.455 181.473 122.126L181.263 118.343L181.683 116.593L181.823 115.264L182.314 113.514C182.314 113.514 182.244 113.234 182.244 112.813C182.244 111.691 182.594 109.59 185.044 109.59C186.025 109.59 186.512 110.292 186.512 111.34C186.512 111.691 185.811 114.703 185.811 114.703L185.951 117.996L185.671 121.986L187.56 123.178L190.92 123.459C191.902 123.599 193.44 124.998 193.44 126.331C193.44 126.751 192.669 127.032 192.252 127.453H192.256Z" fill="black"/>
<path d="M273.162 155.186C272.952 155.256 272.742 155.326 272.462 155.326C271.831 155.326 271.274 155.116 271.274 155.116L268.474 153.016L262.874 154.208C260.705 154.699 258.676 154.839 256.994 154.839C254.404 154.839 253.216 152.598 251.674 150.498C250.276 148.748 249.155 146.714 249.155 145.526C249.155 139.081 253.773 133.551 253.773 133.551L255.452 131.029L256.71 130.468C256.71 130.468 258.458 129.21 260.211 129.21C261.469 129.21 263.291 130.191 264.479 130.191C264.829 130.191 265.11 130.121 265.32 129.911L266.648 128.508C266.648 128.508 267.279 128.228 267.836 128.228C269.097 128.228 270.776 132.081 271.126 135.02L271.477 138.032L272.945 144.614V147.696L273.996 150.217C273.996 150.217 273.996 154.839 273.155 155.19L273.162 155.186ZM267.422 140.76L265.954 138.379L265.323 137.05C265.323 137.05 262.804 135.3 260.214 135.3C256.713 135.3 252.725 139.084 252.725 143.285C252.725 144.547 253.777 146.788 253.777 146.788L255.666 148.257L256.854 149.309C256.854 149.309 258.602 150.221 259.373 150.221C264.482 150.221 267.913 147.559 267.913 143.078C267.913 142.096 267.422 140.767 267.422 140.767V140.76Z" fill="black"/>
<path d="M113.22 131.422C112.554 132.716 112.792 132.842 112.109 134.126C111.654 134.981 111.2 135.838 110.749 136.696C110.066 137.979 110.297 138.106 109.614 139.389C108.931 140.676 108.857 140.634 108.174 141.921C107.49 143.208 106.842 142.861 106.159 144.147C105.475 145.431 106.134 145.782 105.451 147.065C104.768 148.352 104.333 148.117 103.646 149.404C102.963 150.691 103.268 150.852 102.584 152.139C101.901 153.426 101.715 153.328 101.032 154.611C100.349 155.898 100.615 156.042 99.9282 157.329C99.2448 158.616 99.7039 159.822 98.2461 159.825C96.7918 159.825 97.759 158.349 97.0757 157.066C96.3924 155.782 96.2207 155.873 95.5408 154.587C94.861 153.3 95.1834 153.128 94.5001 151.844C93.8167 150.561 93.3717 150.796 92.6883 149.509C92.005 148.222 92.2818 148.075 91.5985 146.791C90.9152 145.508 90.3405 145.813 89.6571 144.53C88.9738 143.243 88.9072 143.278 88.2239 141.994C87.5405 140.708 87.6632 140.644 86.9799 139.358C86.2965 138.071 86.5804 137.92 85.897 136.633C85.2137 135.346 84.8738 135.525 84.1869 134.238C83.5036 132.951 83.4826 132.955 82.8168 131.657C82.3717 130.714 82.3717 129.571 82.1159 128.613C81.8496 127.614 81.408 126.625 81.3309 125.629C81.2539 124.605 81.8566 123.596 81.9652 122.596C82.0739 121.597 82.0774 120.573 82.3682 119.609C82.6626 118.634 83.0235 117.694 83.4861 116.793C83.9486 115.892 84.6355 115.148 85.2522 114.342C85.869 113.535 86.4647 112.75 87.2216 112.066C87.9716 111.389 88.6129 110.544 89.4819 110.008C90.337 109.482 91.2866 109.043 92.2468 108.679C93.1789 108.325 94.1391 107.806 95.1554 107.62C96.1295 107.444 97.2089 107.9 98.2496 107.9V107.493C99.2904 107.493 100.296 107.844 101.27 108.019C102.245 108.195 103.348 108.247 104.281 108.602C105.241 108.966 106.015 109.717 106.87 110.243C107.739 110.776 108.482 111.435 109.232 112.112C109.982 112.788 111.201 113.093 111.818 113.896C112.435 114.703 112.778 115.765 113.244 116.67C113.707 117.571 114.033 118.574 114.327 119.546C114.618 120.513 115.06 121.509 115.172 122.523C115.28 123.522 115.358 124.612 115.277 125.636C115.196 126.66 114.58 127.593 114.313 128.592C114.057 129.55 113.665 130.475 113.22 131.419V131.422Z" fill="black"/>
<path d="M108.917 128.508L106.141 128.357C106.141 128.357 104.428 127.902 103.215 127.902C102.609 127.902 102.104 128.052 102.104 128.407C102.104 128.61 102.304 129.062 102.609 129.416L103.667 130.577L103.716 131.534C104.119 132.141 104.876 133.505 105.129 134.259C105.23 134.662 105.279 135.016 105.279 135.371C105.279 137.187 103.818 137.944 102.455 137.944C101.344 137.944 100.286 137.439 100.082 136.531C99.7285 135.672 99.2238 132.492 98.6702 132.492C98.5685 132.492 98.5195 132.541 98.4178 132.744L97.6119 134.459L97.1598 136.78C97.1598 136.78 95.292 139.151 93.8798 139.151C92.6183 139.151 91.5109 137.888 91.5109 136.626C91.5109 134.252 94.7384 132.941 94.7384 130.872C94.7384 130.721 94.6367 130.013 94.1321 130.013C94.0305 130.013 93.9324 130.062 93.8307 130.114L89.6957 132.032C89.2401 132.236 88.7881 132.337 88.3851 132.337C87.1235 132.337 86.0652 131.429 86.0652 129.409C86.0652 128.449 86.9729 127.793 87.933 127.239C89.4959 126.331 91.0098 125.826 92.6743 125.826C93.1789 125.826 94.0375 125.977 94.5912 125.977C94.8925 125.977 95.0958 125.927 95.0958 125.777C95.0958 125.724 95.0958 125.675 95.0432 125.573L94.6402 124.868L93.8833 122.698L93.4312 122.091L92.9757 121.134C92.825 120.78 92.7759 120.426 92.7759 120.075C92.7759 118.862 93.6345 117.803 95.3481 117.803C97.6679 117.803 97.8712 123.154 99.0802 123.154C99.8371 123.154 102.209 117.501 104.025 117.501C105.234 117.501 106.495 118.764 106.495 119.773C106.495 120.482 105.889 121.793 105.889 121.793L103.972 123.357C103.821 123.508 103.72 123.659 103.72 123.76C103.72 123.911 103.871 124.062 104.074 124.062C104.175 124.062 104.277 124.013 104.428 123.96L105.132 123.606L106.04 123.252C106.443 123.052 107.098 122.849 107.603 122.849C109.369 122.849 110.48 124.514 110.48 126.131C110.48 127.646 108.917 128.505 108.917 128.505V128.508Z" fill="#FFF3E2"/>
</g>
<defs>
<clipPath id="clip0_54_1023">
<rect width="274" height="161" fill="white"/>
</clipPath>
</defs>
</svg>
